<svg xmlns="http://www.w3.org/2000/svg" version="1.1" xmlns:xlink="http://www.w3.org/1999/xlink" xmlns:svgjs="http://svgjs.dev/svgjs" viewBox="0 0 800 800" preserveAspectRatio="xMidYMid slice"><defs><pattern id="pppixelate-pattern" width="20" height="20" patternUnits="userSpaceOnUse" patternTransform="translate(0 0) scale(40) rotate(0)" shape-rendering="crispEdges">
    <rect width="1" height="1" x="9" y="3" fill="hsla(117, 100%, 50%, 1.00)"></rect><rect width="1" height="1" x="10" y="3" fill="hsla(117, 100%, 50%, 1.00)"></rect><rect width="1" height="1" x="9" y="4" fill="hsla(117, 100%, 50%, 1.00)"></rect><rect width="1" height="1" x="10" y="4" fill="hsla(117, 100%, 50%, 1.00)"></rect><rect width="1" height="1" x="8" y="5" fill="hsla(117, 100%, 50%, 1.00)"></rect><rect width="1" height="1" x="9" y="5" fill="hsla(117, 100%, 50%, 1.00)"></rect><rect width="1" height="1" x="10" y="5" fill="hsla(117, 100%, 50%, 1.00)"></rect><rect width="1" height="1" x="11" y="5" fill="hsla(117, 100%, 50%, 1.00)"></rect><rect width="1" height="1" x="8" y="6" fill="hsla(117, 100%, 50%, 1.00)"></rect><rect width="1" height="1" x="9" y="6" fill="hsla(117, 100%, 50%, 1.00)"></rect><rect width="1" height="1" x="10" y="6" fill="hsla(117, 100%, 50%, 1.00)"></rect><rect width="1" height="1" x="11" y="6" fill="hsla(117, 100%, 50%, 1.00)"></rect><rect width="1" height="1" x="8" y="7" fill="hsla(117, 100%, 50%, 1.00)"></rect><rect width="1" height="1" x="9" y="7" fill="hsla(117, 100%, 50%, 1.00)"></rect><rect width="1" height="1" x="10" y="7" fill="hsla(117, 100%, 50%, 1.00)"></rect><rect width="1" height="1" x="11" y="7" fill="hsla(117, 100%, 50%, 1.00)"></rect><rect width="1" height="1" x="8" y="8" fill="hsla(117, 100%, 50%, 1.00)"></rect><rect width="1" height="1" x="9" y="8" fill="hsla(117, 100%, 50%, 1.00)"></rect><rect width="1" height="1" x="10" y="8" fill="hsla(117, 100%, 50%, 1.00)"></rect><rect width="1" height="1" x="11" y="8" fill="hsla(117, 100%, 50%, 1.00)"></rect><rect width="1" height="1" x="8" y="9" fill="hsla(117, 100%, 50%, 1.00)"></rect><rect width="1" height="1" x="9" y="9" fill="hsla(117, 100%, 50%, 1.00)"></rect><rect width="1" height="1" x="10" y="9" fill="hsla(117, 100%, 50%, 1.00)"></rect><rect width="1" height="1" x="11" y="9" fill="hsla(117, 100%, 50%, 1.00)"></rect><rect width="1" height="1" x="8" y="10" fill="hsla(117, 100%, 50%, 1.00)"></rect><rect width="1" height="1" x="9" y="10" fill="hsla(117, 100%, 50%, 1.00)"></rect><rect width="1" height="1" x="10" y="10" fill="hsla(117, 100%, 50%, 1.00)"></rect><rect width="1" height="1" x="11" y="10" fill="hsla(117, 100%, 50%, 1.00)"></rect><rect width="1" height="1" x="8" y="11" fill="hsla(117, 100%, 50%, 1.00)"></rect><rect width="1" height="1" x="9" y="11" fill="hsla(117, 100%, 50%, 1.00)"></rect><rect width="1" height="1" x="10" y="11" fill="hsla(117, 100%, 50%, 1.00)"></rect><rect width="1" height="1" x="11" y="11" fill="hsla(117, 100%, 50%, 1.00)"></rect><rect width="1" height="1" x="8" y="12" fill="hsla(117, 100%, 50%, 1.00)"></rect><rect width="1" height="1" x="9" y="12" fill="hsla(117, 100%, 50%, 1.00)"></rect><rect width="1" height="1" x="10" y="12" fill="hsla(117, 100%, 50%, 1.00)"></rect><rect width="1" height="1" x="11" y="12" fill="hsla(117, 100%, 50%, 1.00)"></rect><rect width="1" height="1" x="5" y="13" fill="hsla(117, 100%, 50%, 1.00)"></rect><rect width="1" height="1" x="6" y="13" fill="hsla(117, 100%, 50%, 1.00)"></rect><rect width="1" height="1" x="7" y="13" fill="hsla(117, 100%, 50%, 1.00)"></rect><rect width="1" height="1" x="8" y="13" fill="hsla(117, 100%, 50%, 1.00)"></rect><rect width="1" height="1" x="9" y="13" fill="hsla(117, 100%, 50%, 1.00)"></rect><rect width="1" height="1" x="10" y="13" fill="hsla(117, 100%, 50%, 1.00)"></rect><rect width="1" height="1" x="11" y="13" fill="hsla(117, 100%, 50%, 1.00)"></rect><rect width="1" height="1" x="12" y="13" fill="hsla(117, 100%, 50%, 1.00)"></rect><rect width="1" height="1" x="13" y="13" fill="hsla(117, 100%, 50%, 1.00)"></rect><rect width="1" height="1" x="14" y="13" fill="hsla(117, 100%, 50%, 1.00)"></rect><rect width="1" height="1" x="4" y="14" fill="hsla(117, 100%, 50%, 1.00)"></rect><rect width="1" height="1" x="5" y="14" fill="hsla(117, 100%, 50%, 1.00)"></rect><rect width="1" height="1" x="6" y="14" fill="hsla(117, 100%, 50%, 1.00)"></rect><rect width="1" height="1" x="7" y="14" fill="hsla(117, 100%, 50%, 1.00)"></rect><rect width="1" height="1" x="8" y="14" fill="hsla(117, 100%, 50%, 1.00)"></rect><rect width="1" height="1" x="9" y="14" fill="hsla(117, 100%, 50%, 1.00)"></rect><rect width="1" height="1" x="10" y="14" fill="hsla(117, 100%, 50%, 1.00)"></rect><rect width="1" height="1" x="11" y="14" fill="hsla(117, 100%, 50%, 1.00)"></rect><rect width="1" height="1" x="12" y="14" fill="hsla(117, 100%, 50%, 1.00)"></rect><rect width="1" height="1" x="13" y="14" fill="hsla(117, 100%, 50%, 1.00)"></rect><rect width="1" height="1" x="14" y="14" fill="hsla(117, 100%, 50%, 1.00)"></rect><rect width="1" height="1" x="15" y="14" fill="hsla(117, 100%, 50%, 1.00)"></rect><rect width="1" height="1" x="7" y="15" fill="hsla(117, 100%, 50%, 1.00)"></rect><rect width="1" height="1" x="12" y="15" fill="hsla(117, 100%, 50%, 1.00)"></rect><rect width="1" height="1" x="7" y="16" fill="hsla(117, 100%, 50%, 1.00)"></rect><rect width="1" height="1" x="12" y="16" fill="hsla(117, 100%, 50%, 1.00)"></rect>
  </pattern></defs><rect width="100%" height="100%" fill="url(#pppixelate-pattern)"></rect></svg>